Coordinates
version=1
nRows=11
nColumns=40
inDegrees=yes

Units are S.I. units (second, meters, Newtons, ...)
Angles are in degrees.

endheader
time	pelvis_tilt	pelvis_list	pelvis_rotation	pelvis_tx	pelvis_ty	pelvis_tz	hip_flexion_r	hip_adduction_r	hip_rotation_r	knee_angle_r	knee_angle_r_beta	ankle_angle_r	subtalar_angle_r	mtp_angle_r	hip_flexion_l	hip_adduction_l	hip_rotation_l	knee_angle_l	knee_angle_l_beta	ankle_angle_l	subtalar_angle_l	mtp_angle_l	lumbar_extension	lumbar_bending	lumbar_rotation	arm_flex_r	arm_add_r	arm_rot_r	elbow_flex_r	pro_sup_r	wrist_flex_r	wrist_dev_r	arm_flex_l	arm_add_l	arm_rot_l	elbow_flex_l	pro_sup_l	wrist_flex_l	wrist_dev_l
     11.39428571	     -6.18815274	     -3.91948739	     -1.15749269	      0.96319874	      0.91346253	      0.39319092	     24.64833390	     -7.18536731	     -5.20460583	     64.61252115	     64.61252115	      9.10440490	    -19.37187511	     16.48946835	     19.21514063	     -0.27690195	     -0.52917598	     32.14669918	     32.14669918	     21.30031880	    -17.56352965	      9.76492625	    -10.02800191	      5.82694930	      3.32518389	     11.63569541	    -13.19948991	    -16.67624823	     20.79687473	     47.20091936	      0.00000000	      0.00000000	     25.01959592	    -14.49924853	     13.94962932	     44.07816386	     45.56872832	      0.00000000	      0.00000000
     11.41357143	     -6.15330728	     -3.97621414	     -1.87396142	      0.96215071	      0.91467594	      0.39279596	     26.19913421	     -6.72457129	     -4.92375772	     63.94832952	     63.94832952	     10.17597587	    -19.37680890	     16.61087489	     18.40964352	     -0.45551596	     -1.16585285	     31.48540223	     31.48540223	     21.38221657	    -17.44750949	      9.75464254	    -10.17912279	      6.13919087	      3.40639434	      8.81796187	    -13.12468183	    -16.87361333	     19.56223979	     47.25539238	      0.00000000	      0.00000000	     26.26957745	    -14.82301389	     13.11709860	     45.64795694	     45.68559092	      0.00000000	      0.00000000
     11.43285714	     -6.24261814	     -4.12254427	     -2.60131294	      0.96096281	      0.91607111	      0.39305158	     27.67402736	     -6.00477660	     -4.65159115	     62.47499390	     62.47499390	     11.21462497	    -19.32491728	     16.33514361	     17.80918550	     -0.77475587	     -1.77341344	     30.93973835	     30.93973835	     21.36108629	    -17.36509772	      9.85298858	    -10.09354126	      6.45887370	      2.65623428	      6.62583817	    -12.87468232	    -16.96152215	     18.80511358	     47.27614486	      0.00000000	      0.00000000	     27.43731975	    -15.86711224	     12.62521117	     46.17926837	     45.74829628	      0.00000000	      0.00000000
     11.45214286	     -6.30740522	     -4.30580427	     -3.50179254	      0.96003679	      0.91825925	      0.39384238	     28.77988112	     -5.13293046	     -4.37441688	     59.98598875	     59.98598875	     11.51530001	    -19.22436274	     14.55681782	     16.75007711	     -1.19720686	     -2.66090294	     29.63162687	     29.63162687	     20.90144511	    -17.14733811	      9.02496997	    -10.34284060	      6.81056390	      2.83605517	      3.61880879	    -12.76093057	    -17.87490634	     19.07052528	     47.36990641	      0.00000000	      0.00000000	     27.10536250	    -16.08982190	      8.51500378	     51.31359798	     46.20828543	      0.00000000	      0.00000000
     11.47142857	     -6.43696772	     -4.48664336	     -4.41056291	      0.95898812	      0.92051439	      0.39514119	     29.63190760	     -4.19981493	     -4.14177663	     56.63386229	     56.63386229	     11.12192984	    -19.02502328	     10.83919832	     15.81243659	     -1.61716728	     -3.48106774	     28.43105102	     28.43105102	     20.49243808	    -16.98153566	      8.63931633	    -10.36305125	      7.07591185	      2.61513574	      1.29971728	    -12.59850174	    -18.35905633	     18.77846379	     47.45253784	      0.00000000	      0.00000000	     27.54282498	    -16.59689174	      5.77981204	     53.88265915	     46.50578337	      0.00000000	      0.00000000
     11.49071429	     -6.61219759	     -4.68755735	     -5.34501744	      0.95797730	      0.92287424	      0.39688915	     30.14347874	     -3.20276785	     -3.95443681	     52.42380760	     52.42380760	     10.09202926	    -18.63757852	      5.99005057	     14.86293830	     -2.06681877	     -4.32025989	     27.14567558	     27.14567558	     20.06188395	    -16.77997854	      8.36767282	    -10.33588987	      7.31082535	      2.50702974	     -1.07286124	    -12.50276631	    -18.71486373	     19.09952980	     47.48021427	      0.00000000	      0.00000000	     27.97926342	    -17.26863748	      3.75001949	     56.55482362	     46.73083368	      0.00000000	      0.00000000
     11.51000000	     -6.82382496	     -4.87218465	     -6.30305879	      0.95705142	      0.92516642	      0.39905031	     30.39100258	     -2.18158480	     -3.74778033	     47.68045874	     47.68045874	      9.23355057	    -17.60737942	      2.35897517	     13.87318951	     -2.49653195	     -5.18630962	     25.75210914	     25.75210914	     19.69393742	    -16.52656430	      8.30676381	    -10.24180920	      7.48407182	      2.79411146	     -3.47078795	    -12.48909809	    -18.90912243	     19.27316725	     47.47721341	      0.00000000	      0.00000000	     28.64061329	    -17.65777612	      2.20623671	     59.05364148	     46.90197723	      0.00000000	      0.00000000
     11.52928571	     -7.02694954	     -5.04792739	     -7.20461914	      0.95618098	      0.92719698	      0.40143910	     30.21117077	     -1.30867377	     -3.84105903	     42.27490696	     42.27490696	      7.53128916	    -15.82948334	     -2.93320682	     12.92078234	     -2.89572216	     -5.99375786	     24.45280350	     24.45280350	     19.20122983	    -16.38137416	      7.92216247	    -10.15611112	      7.65410903	      2.38875676	     -5.54897647	    -12.39404555	    -19.11826465	     20.58933759	     47.41502202	      0.00000000	      0.00000000	     28.82376525	    -18.56771569	     -0.08420105	     61.84192937	     47.12983081	      0.00000000	      0.00000000
     11.54857143	     -7.17121858	     -5.18183509	     -8.06763510	      0.95548370	      0.92897881	      0.40409305	     29.83120853	     -0.47752915	     -3.92406542	     37.00145214	     37.00145214	      7.31685046	    -12.42455008	     -3.05498099	     11.88117858	     -3.22645559	     -6.79564302	     23.15641997	     23.15641997	     19.01615301	    -16.06881220	      8.11701588	    -10.02889448	      7.72851114	      2.52193076	     -7.21693575	    -12.40782358	    -19.15849377	     20.32815027	     47.41205338	      0.00000000	      0.00000000	     29.89813908	    -19.28545373	     -0.72600562	     63.00117662	     47.20353142	      0.00000000	      0.00000000
     11.56785714	     -7.27662279	     -5.11064517	     -8.85002780	      0.95499026	      0.93003480	      0.40668837	     29.26503308	     -0.11724226	     -4.55838052	     31.82000597	     31.82000597	      6.71374815	     -7.56354588	     -3.89278298	     10.81706708	     -3.26771325	     -7.50425238	     21.85315289	     21.85315289	     18.73443218	    -15.87737496	      7.64719222	     -9.94527482	      7.55519474	      2.55532160	     -9.19435569	    -12.29986416	    -19.33278492	     21.76397872	     47.32799390	      0.00000000	      0.00000000	     30.38227870	    -19.84166834	     -2.50035216	     65.84852622	     47.38535111	      0.00000000	      0.00000000
     11.58714286	     -7.33323434	     -5.17336967	     -9.51743623	      0.95470820	      0.93065647	      0.40967406	     28.45307573	      0.54865340	     -4.85069156	     26.82698978	     26.82698978	      5.97629327	     -3.41340729	     -3.07539965	      9.80741876	     -3.48010242	     -8.23224285	     20.80924676	     20.80924676	     18.66236364	    -15.59194428	      7.59868228	     -9.80153341	      7.53921135	      2.59486053	    -10.63256522	    -12.31152023	    -19.41168184	     21.88765641	     47.30999975	      0.00000000	      0.00000000	     31.39512322	    -20.47609819	     -3.21156480	     67.18642450	     47.46757675	      0.00000000	      0.00000000
